# xmcd CD database file
#
# Track frame offsets:
#	150
#	47422
#	77980
#	126190
#	150625
#	194367
#	232590
#
# Disc length: 3760 seconds
#
# Revision: 0
# Processed by: cddbd v1.5.2PL0 Copyright (c) Steve Scherf et al.
# Submitted via: CDex 2.20
#
DISCID=4b0eae07
DTITLE=Jazz Perfect Collection - Jazz sax
DYEAR=1900
DGENRE=Jazz
TTITLE0=Joshua fit the Battle of Jericho
TTITLE1=St. Thomas
TTITLE2=Blue Train
TTITLE3=You'd be so Nice to come Home to
TTITLE4=Body and Soul
TTITLE5=My Funny Valentine
TTITLE6=Autumn Leaves
EXTD=
EXTT0=
EXTT1=
EXTT2=
EXTT3=
EXTT4=
EXTT5=
EXTT6=
PLAYORDER=
